<svg xmlns="http://www.w3.org/2000/svg" width="127" height="134" fill="none">
  <path d="M0 0h127v134H0z"/>
  <path fill="#0D6EFD" d="M16.38 65V18.98h38.4c1.41 0 2.7.37 3.84 1.1a7.4 7.4 0 0 1 3.84 6.6v13.49A7.4 7.4 0 0 1 61.44 44a8.09 8.09 0 0 1-2.82 2.81 7.39 7.39 0 0 1-3.84 1.03H21.57V65h-5.19Zm7.68-22.4h30.72c.69 0 1.26-.23 1.73-.7.51-.47.77-1.05.77-1.73v-13.5c0-.69-.26-1.26-.77-1.73a2.25 2.25 0 0 0-1.73-.77H24.06c-.68 0-1.28.25-1.79.77-.47.47-.7 1.04-.7 1.72v13.5c0 .7.23 1.27.7 1.74.51.47 1.11.7 1.8.7ZM67.76 65V26.6c0-1.4.34-2.69 1.03-3.84a7.58 7.58 0 0 1 2.75-2.82 7.73 7.73 0 0 1 3.9-1.02h30.72c1.41 0 2.7.34 3.84 1.02a7.44 7.44 0 0 1 2.82 2.82 7.4 7.4 0 0 1 1.02 3.84V65h-5.18V48.17H72.95V65h-5.19Zm5.19-22.02h35.7V26.6c0-.68-.25-1.26-.76-1.73a2.26 2.26 0 0 0-1.73-.77H75.44c-.68 0-1.28.26-1.79.77-.47.47-.7 1.05-.7 1.73v16.38ZM24.06 118.66c-1.4 0-2.7-.34-3.9-1.03a7.73 7.73 0 0 1-2.75-2.75 7.73 7.73 0 0 1-1.03-3.9V80.26c0-1.41.35-2.7 1.03-3.84a7.58 7.58 0 0 1 2.75-2.82 7.73 7.73 0 0 1 3.9-1.02h38.28v5.18H24.06c-.68 0-1.28.26-1.79.77-.47.47-.7 1.04-.7 1.73v30.72c0 .68.23 1.28.7 1.79.51.47 1.11.7 1.8.7h38.27v5.19H24.06Zm63.13 0v-40.9H66.7v-5.18h46.08v5.18H92.37v40.9h-5.18Z"/>
</svg>
